<mxfile host="app.diagrams.net" modified="2023-08-11T12:50:37.613Z" agent="Mozilla/5.0 (X11; Ubuntu; Linux x86_64; rv:109.0) Gecko/20100101 Firefox/113.0" etag="BqQguGb6CNyOWtrKYg8q" version="21.6.8" type="device">
  <diagram id="R2lEEEUBdFMjLlhIrx00" name="Page-1">
    <mxGraphModel dx="939" dy="548" grid="1" gridSize="10" guides="1" tooltips="1" connect="1" arrows="1" fold="1" page="1" pageScale="1" pageWidth="850" pageHeight="1100" background="#ffffff" math="0" shadow="0" extFonts="Permanent Marker^https://fonts.googleapis.com/css?family=Permanent+Marker">
      <root>
        <mxCell id="0" />
        <mxCell id="1" parent="0" />
        <mxCell id="19pDw-ojY_lWeoZDMTBm-103" style="edgeStyle=orthogonalEdgeStyle;rounded=0;orthogonalLoop=1;jettySize=auto;html=1;exitX=0.5;exitY=1;exitDx=0;exitDy=0;endArrow=none;endFill=0;" parent="1" source="19pDw-ojY_lWeoZDMTBm-1" target="19pDw-ojY_lWeoZDMTBm-102" edge="1">
          <mxGeometry relative="1" as="geometry" />
        </mxCell>
        <mxCell id="19pDw-ojY_lWeoZDMTBm-1" value="&lt;div style=&quot;font-size: 24px;&quot;&gt;Transação&lt;/div&gt;" style="rounded=0;whiteSpace=wrap;html=1;" parent="1" vertex="1">
          <mxGeometry x="395" y="330" width="120" height="60" as="geometry" />
        </mxCell>
        <mxCell id="19pDw-ojY_lWeoZDMTBm-64" style="edgeStyle=orthogonalEdgeStyle;rounded=0;orthogonalLoop=1;jettySize=auto;html=1;exitX=1;exitY=0.5;exitDx=0;exitDy=0;endArrow=none;endFill=0;" parent="1" source="19pDw-ojY_lWeoZDMTBm-4" target="19pDw-ojY_lWeoZDMTBm-60" edge="1">
          <mxGeometry relative="1" as="geometry" />
        </mxCell>
        <mxCell id="19pDw-ojY_lWeoZDMTBm-4" value="&lt;font style=&quot;font-size: 24px;&quot;&gt;Cliente&lt;/font&gt;" style="rounded=0;whiteSpace=wrap;html=1;" parent="1" vertex="1">
          <mxGeometry x="70" y="87" width="120" height="60" as="geometry" />
        </mxCell>
        <mxCell id="19pDw-ojY_lWeoZDMTBm-85" style="edgeStyle=orthogonalEdgeStyle;rounded=0;orthogonalLoop=1;jettySize=auto;html=1;exitX=0;exitY=0.5;exitDx=0;exitDy=0;endArrow=none;endFill=0;" parent="1" source="19pDw-ojY_lWeoZDMTBm-5" target="19pDw-ojY_lWeoZDMTBm-83" edge="1">
          <mxGeometry relative="1" as="geometry" />
        </mxCell>
        <mxCell id="sK7tFyFliOIsIeveS1PR-2" style="edgeStyle=orthogonalEdgeStyle;rounded=0;orthogonalLoop=1;jettySize=auto;html=1;exitX=1;exitY=0.5;exitDx=0;exitDy=0;strokeColor=#FFFFFF;" edge="1" parent="1" source="19pDw-ojY_lWeoZDMTBm-5">
          <mxGeometry relative="1" as="geometry">
            <mxPoint x="859.9999999999998" y="116.82758620689663" as="targetPoint" />
          </mxGeometry>
        </mxCell>
        <mxCell id="19pDw-ojY_lWeoZDMTBm-5" value="&lt;font style=&quot;font-size: 24px;&quot;&gt;Agência&lt;/font&gt;" style="rounded=0;whiteSpace=wrap;html=1;" parent="1" vertex="1">
          <mxGeometry x="700" y="87" width="140" height="60" as="geometry" />
        </mxCell>
        <mxCell id="19pDw-ojY_lWeoZDMTBm-63" style="edgeStyle=orthogonalEdgeStyle;rounded=0;orthogonalLoop=1;jettySize=auto;html=1;exitX=0;exitY=0.5;exitDx=0;exitDy=0;endArrow=none;endFill=0;" parent="1" source="19pDw-ojY_lWeoZDMTBm-6" target="19pDw-ojY_lWeoZDMTBm-60" edge="1">
          <mxGeometry relative="1" as="geometry" />
        </mxCell>
        <mxCell id="19pDw-ojY_lWeoZDMTBm-94" style="edgeStyle=orthogonalEdgeStyle;rounded=0;orthogonalLoop=1;jettySize=auto;html=1;exitX=1;exitY=0.25;exitDx=0;exitDy=0;endArrow=none;endFill=0;" parent="1" source="19pDw-ojY_lWeoZDMTBm-6" target="19pDw-ojY_lWeoZDMTBm-70" edge="1">
          <mxGeometry relative="1" as="geometry" />
        </mxCell>
        <mxCell id="19pDw-ojY_lWeoZDMTBm-95" style="edgeStyle=orthogonalEdgeStyle;rounded=0;orthogonalLoop=1;jettySize=auto;html=1;exitX=0;exitY=0.25;exitDx=0;exitDy=0;entryX=0.5;entryY=1;entryDx=0;entryDy=0;endArrow=none;endFill=0;" parent="1" source="19pDw-ojY_lWeoZDMTBm-6" target="19pDw-ojY_lWeoZDMTBm-69" edge="1">
          <mxGeometry relative="1" as="geometry" />
        </mxCell>
        <mxCell id="19pDw-ojY_lWeoZDMTBm-116" style="edgeStyle=orthogonalEdgeStyle;rounded=0;orthogonalLoop=1;jettySize=auto;html=1;endArrow=none;endFill=0;" parent="1" source="19pDw-ojY_lWeoZDMTBm-6" target="19pDw-ojY_lWeoZDMTBm-83" edge="1">
          <mxGeometry relative="1" as="geometry" />
        </mxCell>
        <mxCell id="19pDw-ojY_lWeoZDMTBm-6" value="&lt;div&gt;&lt;font style=&quot;font-size: 24px;&quot;&gt;Conta&lt;/font&gt;&lt;/div&gt;" style="rounded=0;whiteSpace=wrap;html=1;" parent="1" vertex="1">
          <mxGeometry x="395" y="87" width="120" height="60" as="geometry" />
        </mxCell>
        <mxCell id="19pDw-ojY_lWeoZDMTBm-50" style="edgeStyle=orthogonalEdgeStyle;rounded=0;orthogonalLoop=1;jettySize=auto;html=1;exitX=0.5;exitY=1;exitDx=0;exitDy=0;entryX=0.25;entryY=0;entryDx=0;entryDy=0;endArrow=none;endFill=0;" parent="1" source="19pDw-ojY_lWeoZDMTBm-37" target="19pDw-ojY_lWeoZDMTBm-4" edge="1">
          <mxGeometry relative="1" as="geometry" />
        </mxCell>
        <mxCell id="19pDw-ojY_lWeoZDMTBm-37" value="" style="ellipse;whiteSpace=wrap;html=1;aspect=fixed;fillColor=#000000;" parent="1" vertex="1">
          <mxGeometry x="85" y="37" width="30" height="30" as="geometry" />
        </mxCell>
        <mxCell id="19pDw-ojY_lWeoZDMTBm-52" style="edgeStyle=orthogonalEdgeStyle;rounded=0;orthogonalLoop=1;jettySize=auto;html=1;exitX=0.5;exitY=1;exitDx=0;exitDy=0;entryX=0.75;entryY=0;entryDx=0;entryDy=0;endArrow=none;endFill=0;" parent="1" source="19pDw-ojY_lWeoZDMTBm-40" target="19pDw-ojY_lWeoZDMTBm-4" edge="1">
          <mxGeometry relative="1" as="geometry" />
        </mxCell>
        <mxCell id="19pDw-ojY_lWeoZDMTBm-40" value="" style="ellipse;whiteSpace=wrap;html=1;aspect=fixed;fillColor=#FFFFFF;" parent="1" vertex="1">
          <mxGeometry x="145" y="37" width="30" height="30" as="geometry" />
        </mxCell>
        <mxCell id="19pDw-ojY_lWeoZDMTBm-49" style="edgeStyle=orthogonalEdgeStyle;rounded=0;orthogonalLoop=1;jettySize=auto;html=1;exitX=1;exitY=0.5;exitDx=0;exitDy=0;endArrow=none;endFill=0;" parent="1" source="19pDw-ojY_lWeoZDMTBm-43" target="19pDw-ojY_lWeoZDMTBm-4" edge="1">
          <mxGeometry relative="1" as="geometry">
            <Array as="points">
              <mxPoint x="60" y="117" />
              <mxPoint x="60" y="117" />
            </Array>
          </mxGeometry>
        </mxCell>
        <mxCell id="19pDw-ojY_lWeoZDMTBm-43" value="" style="ellipse;whiteSpace=wrap;html=1;aspect=fixed;fillColor=#FFFFFF;" parent="1" vertex="1">
          <mxGeometry x="20" y="102" width="30" height="30" as="geometry" />
        </mxCell>
        <mxCell id="19pDw-ojY_lWeoZDMTBm-47" style="edgeStyle=orthogonalEdgeStyle;rounded=0;orthogonalLoop=1;jettySize=auto;html=1;exitX=0.5;exitY=0;exitDx=0;exitDy=0;entryX=0.25;entryY=1;entryDx=0;entryDy=0;endArrow=none;endFill=0;" parent="1" source="19pDw-ojY_lWeoZDMTBm-45" target="19pDw-ojY_lWeoZDMTBm-4" edge="1">
          <mxGeometry relative="1" as="geometry" />
        </mxCell>
        <mxCell id="19pDw-ojY_lWeoZDMTBm-45" value="" style="ellipse;whiteSpace=wrap;html=1;aspect=fixed;fillColor=#FFFFFF;" parent="1" vertex="1">
          <mxGeometry x="85" y="167" width="30" height="30" as="geometry" />
        </mxCell>
        <mxCell id="19pDw-ojY_lWeoZDMTBm-48" style="edgeStyle=orthogonalEdgeStyle;rounded=0;orthogonalLoop=1;jettySize=auto;html=1;exitX=0.5;exitY=0;exitDx=0;exitDy=0;entryX=0.75;entryY=1;entryDx=0;entryDy=0;endArrow=none;endFill=0;" parent="1" source="19pDw-ojY_lWeoZDMTBm-46" target="19pDw-ojY_lWeoZDMTBm-4" edge="1">
          <mxGeometry relative="1" as="geometry" />
        </mxCell>
        <mxCell id="19pDw-ojY_lWeoZDMTBm-46" value="" style="ellipse;whiteSpace=wrap;html=1;aspect=fixed;fillColor=#FFFFFF;" parent="1" vertex="1">
          <mxGeometry x="145" y="167" width="30" height="30" as="geometry" />
        </mxCell>
        <mxCell id="19pDw-ojY_lWeoZDMTBm-53" value="Nome" style="text;html=1;strokeColor=none;fillColor=none;align=center;verticalAlign=middle;whiteSpace=wrap;rounded=0;" parent="1" vertex="1">
          <mxGeometry x="130" y="193" width="60" height="30" as="geometry" />
        </mxCell>
        <mxCell id="19pDw-ojY_lWeoZDMTBm-54" value="Endereço" style="text;html=1;strokeColor=none;fillColor=none;align=center;verticalAlign=middle;whiteSpace=wrap;rounded=0;" parent="1" vertex="1">
          <mxGeometry x="69" y="193" width="60" height="30" as="geometry" />
        </mxCell>
        <mxCell id="19pDw-ojY_lWeoZDMTBm-55" value="&lt;div&gt;Data de&lt;/div&gt;&lt;div&gt;nascimento&lt;br&gt;&lt;/div&gt;" style="text;html=1;strokeColor=none;fillColor=none;align=center;verticalAlign=middle;whiteSpace=wrap;rounded=0;" parent="1" vertex="1">
          <mxGeometry x="5" y="72" width="60" height="30" as="geometry" />
        </mxCell>
        <mxCell id="19pDw-ojY_lWeoZDMTBm-56" value="&lt;div&gt;CPF&lt;/div&gt;" style="text;html=1;strokeColor=none;fillColor=none;align=center;verticalAlign=middle;whiteSpace=wrap;rounded=0;" parent="1" vertex="1">
          <mxGeometry x="70" y="17" width="60" height="30" as="geometry" />
        </mxCell>
        <mxCell id="19pDw-ojY_lWeoZDMTBm-58" value="Telefone" style="text;html=1;strokeColor=none;fillColor=none;align=center;verticalAlign=middle;whiteSpace=wrap;rounded=0;" parent="1" vertex="1">
          <mxGeometry x="130" y="17" width="60" height="30" as="geometry" />
        </mxCell>
        <mxCell id="19pDw-ojY_lWeoZDMTBm-60" value="Possui" style="html=1;whiteSpace=wrap;aspect=fixed;shape=isoRectangle;" parent="1" vertex="1">
          <mxGeometry x="250" y="94.2" width="76" height="45.6" as="geometry" />
        </mxCell>
        <mxCell id="19pDw-ojY_lWeoZDMTBm-69" value="" style="ellipse;whiteSpace=wrap;html=1;aspect=fixed;fillColor=#000000;" parent="1" vertex="1">
          <mxGeometry x="365" y="50" width="30" height="30" as="geometry" />
        </mxCell>
        <mxCell id="19pDw-ojY_lWeoZDMTBm-70" value="" style="ellipse;whiteSpace=wrap;html=1;aspect=fixed;fillColor=#FFFFFF;" parent="1" vertex="1">
          <mxGeometry x="520" y="50" width="30" height="30" as="geometry" />
        </mxCell>
        <mxCell id="19pDw-ojY_lWeoZDMTBm-96" style="edgeStyle=orthogonalEdgeStyle;rounded=0;orthogonalLoop=1;jettySize=auto;html=1;entryX=0.5;entryY=0;entryDx=0;entryDy=0;endArrow=none;endFill=0;" parent="1" source="19pDw-ojY_lWeoZDMTBm-74" target="19pDw-ojY_lWeoZDMTBm-6" edge="1">
          <mxGeometry relative="1" as="geometry" />
        </mxCell>
        <mxCell id="19pDw-ojY_lWeoZDMTBm-74" value="" style="ellipse;whiteSpace=wrap;html=1;aspect=fixed;fillColor=#FFFFFF;" parent="1" vertex="1">
          <mxGeometry x="440" y="37" width="30" height="30" as="geometry" />
        </mxCell>
        <mxCell id="19pDw-ojY_lWeoZDMTBm-78" value="&lt;div&gt;Código&lt;/div&gt;" style="text;html=1;strokeColor=none;fillColor=none;align=center;verticalAlign=middle;whiteSpace=wrap;rounded=0;" parent="1" vertex="1">
          <mxGeometry x="350" y="30" width="60" height="30" as="geometry" />
        </mxCell>
        <mxCell id="19pDw-ojY_lWeoZDMTBm-79" value="Saldo" style="text;html=1;strokeColor=none;fillColor=none;align=center;verticalAlign=middle;whiteSpace=wrap;rounded=0;" parent="1" vertex="1">
          <mxGeometry x="505" y="30" width="60" height="30" as="geometry" />
        </mxCell>
        <mxCell id="19pDw-ojY_lWeoZDMTBm-81" value="Tipo de conta" style="text;html=1;strokeColor=none;fillColor=none;align=center;verticalAlign=middle;whiteSpace=wrap;rounded=0;" parent="1" vertex="1">
          <mxGeometry x="425" y="7" width="60" height="30" as="geometry" />
        </mxCell>
        <mxCell id="19pDw-ojY_lWeoZDMTBm-83" value="Pertence" style="html=1;whiteSpace=wrap;aspect=fixed;shape=isoRectangle;" parent="1" vertex="1">
          <mxGeometry x="570" y="94.2" width="76" height="45.6" as="geometry" />
        </mxCell>
        <mxCell id="19pDw-ojY_lWeoZDMTBm-99" style="edgeStyle=orthogonalEdgeStyle;rounded=0;orthogonalLoop=1;jettySize=auto;html=1;exitX=0.5;exitY=1;exitDx=0;exitDy=0;endArrow=none;endFill=0;strokeWidth=4;" parent="1" source="19pDw-ojY_lWeoZDMTBm-88" target="19pDw-ojY_lWeoZDMTBm-1" edge="1">
          <mxGeometry relative="1" as="geometry" />
        </mxCell>
        <mxCell id="19pDw-ojY_lWeoZDMTBm-100" style="edgeStyle=orthogonalEdgeStyle;rounded=0;orthogonalLoop=1;jettySize=auto;html=1;exitX=0.5;exitY=0;exitDx=0;exitDy=0;entryX=0.5;entryY=1;entryDx=0;entryDy=0;endArrow=none;endFill=0;" parent="1" source="19pDw-ojY_lWeoZDMTBm-88" target="19pDw-ojY_lWeoZDMTBm-6" edge="1">
          <mxGeometry relative="1" as="geometry" />
        </mxCell>
        <mxCell id="19pDw-ojY_lWeoZDMTBm-88" value="Contem" style="rhombus;whiteSpace=wrap;html=1;" parent="1" vertex="1">
          <mxGeometry x="420" y="193" width="70" height="90" as="geometry" />
        </mxCell>
        <mxCell id="19pDw-ojY_lWeoZDMTBm-102" value="" style="triangle;whiteSpace=wrap;html=1;rotation=-90;" parent="1" vertex="1">
          <mxGeometry x="435.31" y="400" width="40" height="101.87" as="geometry" />
        </mxCell>
        <mxCell id="19pDw-ojY_lWeoZDMTBm-106" style="edgeStyle=orthogonalEdgeStyle;rounded=0;orthogonalLoop=1;jettySize=auto;html=1;exitX=0.5;exitY=0;exitDx=0;exitDy=0;entryX=0;entryY=0.25;entryDx=0;entryDy=0;endArrow=none;endFill=0;" parent="1" source="19pDw-ojY_lWeoZDMTBm-104" target="19pDw-ojY_lWeoZDMTBm-102" edge="1">
          <mxGeometry relative="1" as="geometry" />
        </mxCell>
        <mxCell id="19pDw-ojY_lWeoZDMTBm-104" value="Deposito" style="rounded=0;whiteSpace=wrap;html=1;" parent="1" vertex="1">
          <mxGeometry x="350" y="528.75" width="80" height="40" as="geometry" />
        </mxCell>
        <mxCell id="19pDw-ojY_lWeoZDMTBm-107" style="edgeStyle=orthogonalEdgeStyle;rounded=0;orthogonalLoop=1;jettySize=auto;html=1;exitX=0.5;exitY=0;exitDx=0;exitDy=0;entryX=0;entryY=0.75;entryDx=0;entryDy=0;endArrow=none;endFill=0;" parent="1" source="19pDw-ojY_lWeoZDMTBm-105" target="19pDw-ojY_lWeoZDMTBm-102" edge="1">
          <mxGeometry relative="1" as="geometry" />
        </mxCell>
        <mxCell id="19pDw-ojY_lWeoZDMTBm-105" value="&lt;div&gt;Saque&lt;/div&gt;" style="rounded=0;whiteSpace=wrap;html=1;" parent="1" vertex="1">
          <mxGeometry x="485" y="528.75" width="80" height="40" as="geometry" />
        </mxCell>
        <mxCell id="19pDw-ojY_lWeoZDMTBm-109" style="edgeStyle=orthogonalEdgeStyle;rounded=0;orthogonalLoop=1;jettySize=auto;html=1;exitX=0;exitY=0.5;exitDx=0;exitDy=0;entryX=1;entryY=0.5;entryDx=0;entryDy=0;endArrow=none;endFill=0;" parent="1" source="19pDw-ojY_lWeoZDMTBm-108" target="19pDw-ojY_lWeoZDMTBm-1" edge="1">
          <mxGeometry relative="1" as="geometry" />
        </mxCell>
        <mxCell id="19pDw-ojY_lWeoZDMTBm-108" value="" style="ellipse;whiteSpace=wrap;html=1;aspect=fixed;fillColor=#FFFFFF;" parent="1" vertex="1">
          <mxGeometry x="550" y="345" width="30" height="30" as="geometry" />
        </mxCell>
        <mxCell id="19pDw-ojY_lWeoZDMTBm-110" value="Valor" style="text;html=1;strokeColor=none;fillColor=none;align=center;verticalAlign=middle;whiteSpace=wrap;rounded=0;" parent="1" vertex="1">
          <mxGeometry x="535" y="320" width="60" height="30" as="geometry" />
        </mxCell>
        <mxCell id="19pDw-ojY_lWeoZDMTBm-131" style="edgeStyle=orthogonalEdgeStyle;rounded=0;orthogonalLoop=1;jettySize=auto;html=1;exitX=0.5;exitY=0;exitDx=0;exitDy=0;entryX=0.25;entryY=1;entryDx=0;entryDy=0;endArrow=none;endFill=0;" parent="1" source="19pDw-ojY_lWeoZDMTBm-111" target="19pDw-ojY_lWeoZDMTBm-5" edge="1">
          <mxGeometry relative="1" as="geometry" />
        </mxCell>
        <mxCell id="19pDw-ojY_lWeoZDMTBm-111" value="" style="ellipse;whiteSpace=wrap;html=1;aspect=fixed;fillColor=#000000;" parent="1" vertex="1">
          <mxGeometry x="720" y="167" width="30" height="30" as="geometry" />
        </mxCell>
        <mxCell id="19pDw-ojY_lWeoZDMTBm-130" style="edgeStyle=orthogonalEdgeStyle;rounded=0;orthogonalLoop=1;jettySize=auto;html=1;exitX=0.5;exitY=0;exitDx=0;exitDy=0;entryX=0.75;entryY=1;entryDx=0;entryDy=0;endArrow=none;endFill=0;" parent="1" source="19pDw-ojY_lWeoZDMTBm-112" target="19pDw-ojY_lWeoZDMTBm-5" edge="1">
          <mxGeometry relative="1" as="geometry" />
        </mxCell>
        <mxCell id="19pDw-ojY_lWeoZDMTBm-112" value="" style="ellipse;whiteSpace=wrap;html=1;aspect=fixed;fillColor=#FFFFFF;" parent="1" vertex="1">
          <mxGeometry x="790" y="167" width="30" height="30" as="geometry" />
        </mxCell>
        <mxCell id="19pDw-ojY_lWeoZDMTBm-128" style="edgeStyle=orthogonalEdgeStyle;rounded=0;orthogonalLoop=1;jettySize=auto;html=1;entryX=0.25;entryY=0;entryDx=0;entryDy=0;endArrow=none;endFill=0;" parent="1" source="19pDw-ojY_lWeoZDMTBm-113" target="19pDw-ojY_lWeoZDMTBm-5" edge="1">
          <mxGeometry relative="1" as="geometry" />
        </mxCell>
        <mxCell id="19pDw-ojY_lWeoZDMTBm-113" value="" style="ellipse;whiteSpace=wrap;html=1;aspect=fixed;fillColor=#FFFFFF;" parent="1" vertex="1">
          <mxGeometry x="720" y="37" width="30" height="30" as="geometry" />
        </mxCell>
        <mxCell id="19pDw-ojY_lWeoZDMTBm-129" style="edgeStyle=orthogonalEdgeStyle;rounded=0;orthogonalLoop=1;jettySize=auto;html=1;entryX=0.75;entryY=0;entryDx=0;entryDy=0;endArrow=none;endFill=0;" parent="1" source="19pDw-ojY_lWeoZDMTBm-114" target="19pDw-ojY_lWeoZDMTBm-5" edge="1">
          <mxGeometry relative="1" as="geometry" />
        </mxCell>
        <mxCell id="19pDw-ojY_lWeoZDMTBm-114" value="" style="ellipse;whiteSpace=wrap;html=1;aspect=fixed;fillColor=#FFFFFF;" parent="1" vertex="1">
          <mxGeometry x="790" y="37" width="30" height="30" as="geometry" />
        </mxCell>
        <mxCell id="19pDw-ojY_lWeoZDMTBm-132" value="Nome" style="text;html=1;strokeColor=none;fillColor=none;align=center;verticalAlign=middle;whiteSpace=wrap;rounded=0;" parent="1" vertex="1">
          <mxGeometry x="705" y="17" width="60" height="30" as="geometry" />
        </mxCell>
        <mxCell id="19pDw-ojY_lWeoZDMTBm-133" value="Endereço" style="text;html=1;strokeColor=none;fillColor=none;align=center;verticalAlign=middle;whiteSpace=wrap;rounded=0;" parent="1" vertex="1">
          <mxGeometry x="775" y="17" width="60" height="30" as="geometry" />
        </mxCell>
        <mxCell id="19pDw-ojY_lWeoZDMTBm-134" value="Código" style="text;html=1;strokeColor=none;fillColor=none;align=center;verticalAlign=middle;whiteSpace=wrap;rounded=0;" parent="1" vertex="1">
          <mxGeometry x="705" y="193" width="60" height="30" as="geometry" />
        </mxCell>
        <mxCell id="19pDw-ojY_lWeoZDMTBm-135" value="Data de abertura" style="text;html=1;strokeColor=none;fillColor=none;align=center;verticalAlign=middle;whiteSpace=wrap;rounded=0;" parent="1" vertex="1">
          <mxGeometry x="775" y="197" width="60" height="30" as="geometry" />
        </mxCell>
        <mxCell id="19pDw-ojY_lWeoZDMTBm-136" value="Tipo" style="text;html=1;strokeColor=none;fillColor=none;align=center;verticalAlign=middle;whiteSpace=wrap;rounded=0;" parent="1" vertex="1">
          <mxGeometry x="425.31" y="442" width="60" height="30" as="geometry" />
        </mxCell>
        <mxCell id="19pDw-ojY_lWeoZDMTBm-137" value="&lt;font style=&quot;font-size: 10px;&quot;&gt;(1, n)&lt;/font&gt;" style="text;html=1;strokeColor=none;fillColor=none;align=center;verticalAlign=middle;whiteSpace=wrap;rounded=0;" parent="1" vertex="1">
          <mxGeometry x="300" y="87" width="60" height="30" as="geometry" />
        </mxCell>
        <mxCell id="19pDw-ojY_lWeoZDMTBm-138" value="(1, 1)" style="text;html=1;strokeColor=none;fillColor=none;align=center;verticalAlign=middle;whiteSpace=wrap;rounded=0;" parent="1" vertex="1">
          <mxGeometry x="610" y="80" width="60" height="30" as="geometry" />
        </mxCell>
        <mxCell id="19pDw-ojY_lWeoZDMTBm-139" value="(0,n)" style="text;html=1;strokeColor=none;fillColor=none;align=center;verticalAlign=middle;whiteSpace=wrap;rounded=0;" parent="1" vertex="1">
          <mxGeometry x="550" y="80" width="60" height="30" as="geometry" />
        </mxCell>
        <mxCell id="19pDw-ojY_lWeoZDMTBm-140" value="t" style="text;html=1;strokeColor=none;fillColor=none;align=center;verticalAlign=middle;whiteSpace=wrap;rounded=0;" parent="1" vertex="1">
          <mxGeometry x="435.31" y="412" width="60" height="30" as="geometry" />
        </mxCell>
        <mxCell id="19pDw-ojY_lWeoZDMTBm-141" value="(0, n)" style="text;html=1;strokeColor=none;fillColor=none;align=center;verticalAlign=middle;whiteSpace=wrap;rounded=0;" parent="1" vertex="1">
          <mxGeometry x="445" y="270" width="60" height="30" as="geometry" />
        </mxCell>
        <mxCell id="19pDw-ojY_lWeoZDMTBm-142" value="(1, 1)" style="text;html=1;strokeColor=none;fillColor=none;align=center;verticalAlign=middle;whiteSpace=wrap;rounded=0;" parent="1" vertex="1">
          <mxGeometry x="445" y="180" width="60" height="30" as="geometry" />
        </mxCell>
        <mxCell id="sK7tFyFliOIsIeveS1PR-1" value="&lt;div&gt;&lt;font style=&quot;font-size: 10px;&quot;&gt;(1, 1)&lt;/font&gt;&lt;/div&gt;" style="text;html=1;strokeColor=none;fillColor=none;align=center;verticalAlign=middle;whiteSpace=wrap;rounded=0;" vertex="1" parent="1">
          <mxGeometry x="220" y="87" width="60" height="30" as="geometry" />
        </mxCell>
      </root>
    </mxGraphModel>
  </diagram>
</mxfile>
